<?xml version="1.0" encoding="utf-8"?>
<!-- Generator: Adobe Illustrator 28.3.0, SVG Export Plug-In . SVG Version: 6.00 Build 0)  -->
<svg version="1.1" id="Layer_1" xmlns="http://www.w3.org/2000/svg" xmlns:xlink="http://www.w3.org/1999/xlink" x="0px" y="0px"
	 viewBox="0 0 612 292" style="enable-background:new 0 0 612 292;" xml:space="preserve">
<style type="text/css">
	.st0{fill:none;}
	.st1{enable-background:new    ;}
</style>
<rect x="32.71" y="37.77" class="st0" width="535.63" height="251.72"/>
<g class="st1">
	<path d="M41.31,125.37c-0.26-0.39-0.39-0.91-0.39-1.3c-0.39-4.94,12.22-28.34,17.55-39.91c9.1-20.02,20.41-42.12,21.45-47.84
		c2.34-1.82,8.19,1.3,7.8,3.9c-0.91,5.59-9.23,24.05-20.02,45.37c-6.76,13.26-15.47,31.07-17.94,39
		c14.56-1.69,41.08-5.46,43.42-3.12c1.17,1.17,0.13,4.16-1.43,4.29c-5.98-3.38-47.32,5.72-50.44,4.81c-3.64-1.04-3.51-5.46-0.52-5.2
		H41.31z"/>
	<path d="M129.84,84.81c1.56,1.69,2.73,3.9,1.69,5.2c-1.95,2.6-2.86,4.55-5.98,10.92c-3.38,7.54-3.64,14.69,1.04,14.04
		c6.11-0.78,22.49-22.1,25.61-27.3c1.04-1.04,2.86-0.26,2.99,1.17c-2.73,5.2-15.34,23.53-22.88,28.73
		c-6.37,4.42-12.09,1.04-15.73-2.6c-2.34-2.34-1.69-9.75,0.65-14.56c-3.64,5.46-13,16.38-18.72,19.24
		c-3.64,1.69-11.18-2.6-11.96-7.15c-1.04-5.98,4.29-19.24,13.52-29.51c9.62-10.66,17.16-13.78,23.14-15.08
		c6.76-1.43,17.03,5.46,15.34,9.88C136.99,81.17,131.92,84.55,129.84,84.81z M128.93,84.03c0.39-2.34,5.2-9.49,1.95-11.31
		c-3.64-1.95-16.77,5.85-23.53,15.21c-11.05,15.21-14.17,26-11.31,26.52c4.81,0.91,24.05-21.58,28.99-30.55
		C125.81,82.6,127.37,82.99,128.93,84.03z"/>
	<path d="M221.62,41.39c21.19-0.78,36.79,1.56,40.95-0.26c1.43,0.91,2.34,3.9-1.43,4.55c-3.77,0.65-13.65-0.26-27.95-0.13
		c1.69,1.17,2.99,2.73,2.08,3.9c-3.25,4.29-10.92,16.64-20.54,34.06c-12.22,22.23-18.98,40.82-19.63,45.89
		c-0.26,4.55-9.1-0.91-8.45-4.55c1.3-7.41,17.55-39.65,22.23-48.36c4.55-8.32,13.39-24.96,17.81-30.81c-1.3,0-2.73,0.13-4.03,0.13
		c-24.96,1.3-39.91,7.93-40.3,17.81c-5.72,0.39-7.67-7.54-2.86-12.35C188.47,42.17,208.62,41.91,221.62,41.39z"/>
	<path d="M261.27,74.15c4.03,1.04,7.8,2.73,3.51,8.19c-6.5,8.58-17.16,31.46-10.4,32.63c3.77,0.78,21.45-20.54,25.87-27.3
		c0.91-0.78,3.25-0.91,2.99,1.17c-2.86,6.5-15.47,22.62-23.27,28.6c-5.33,4.03-15.34,1.04-16.38-6.5
		c-1.69-9.75,8.71-26.13,11.44-31.07c1.69-2.73-2.21-2.99-5.98-3.64c-3.25,4.94-9.23,13.78-13.91,20.54
		c-1.56,1.43-4.16,0.13-3.51-1.56c2.47-3.9,10.14-14.95,12.87-20.02c-0.78-0.39-1.3-0.91-1.43-1.69c-1.43-4.16,4.55-15.73,7.54-16.9
		c1.95-0.78,5.85,2.34,5.46,4.81c-0.39,2.34-3.51,9.62-5.46,12.61C252.69,74.02,259.19,73.63,261.27,74.15z"/>
	<path d="M312.1,84.81c1.56,1.69,2.73,3.9,1.69,5.2c-1.95,2.6-2.86,4.55-5.98,10.92c-3.38,7.54-3.64,14.69,1.04,14.04
		c6.11-0.78,22.49-22.1,25.61-27.3c1.04-1.04,2.86-0.26,2.99,1.17c-2.73,5.2-15.34,23.53-22.88,28.73
		c-6.37,4.42-12.09,1.04-15.73-2.6c-2.34-2.34-1.69-9.75,0.65-14.56c-3.64,5.46-13,16.38-18.72,19.24
		c-3.64,1.69-11.18-2.6-11.96-7.15c-1.04-5.98,4.29-19.24,13.52-29.51c9.62-10.66,17.16-13.78,23.14-15.08
		c6.76-1.43,17.03,5.46,15.34,9.88C319.25,81.17,314.18,84.55,312.1,84.81z M311.19,84.03c0.39-2.34,5.2-9.49,1.95-11.31
		c-3.64-1.95-16.77,5.85-23.53,15.21c-11.05,15.21-14.17,26-11.31,26.52c4.81,0.91,24.05-21.58,28.99-30.55
		C308.07,82.6,309.63,82.99,311.19,84.03z"/>
	<path d="M350.97,70.51c5.85,0,11.05,0.13,11.7,0.91c1.43,1.82,0.26,3.77-1.82,3.64c-1.04-0.52-6.11-0.65-11.83-0.65
		c-0.91,1.69-1.69,3.38-2.34,4.94c-7.02,15.99-16.25,38.48-7.15,35.49c4.81-1.56,21.71-22.75,25.48-27.95
		c1.17-0.91,3.25-0.26,2.6,1.95c-2.21,4.81-17.81,26.65-24.57,29.9c-4.68,2.21-14.56,0-15.6-7.15c-0.91-6.37,2.6-17.55,12.61-37.05
		c-4.16,0-7.41,0.13-8.32,0.13c-2.6,0-2.21-3.12,0.52-4.16c0.91,0.26,4.94,0.26,9.75,0.13c7.67-14.69,11.18-19.89,11.96-22.49
		c2.47-1.82,7.41,1.04,6.76,3.9C360.07,54.91,355.39,62.32,350.97,70.51z"/>
	<path d="M381.13,70.51c5.85,0,11.05,0.13,11.7,0.91c1.43,1.82,0.26,3.77-1.82,3.64c-1.04-0.52-6.11-0.65-11.83-0.65
		c-0.91,1.69-1.69,3.38-2.34,4.94c-7.02,15.99-16.25,38.48-7.15,35.49c4.81-1.56,21.71-22.75,25.48-27.95
		c1.17-0.91,3.25-0.26,2.6,1.95c-2.21,4.81-17.81,26.65-24.57,29.9c-4.68,2.21-14.56,0-15.6-7.15c-0.91-6.37,2.6-17.55,12.61-37.05
		c-4.16,0-7.41,0.13-8.32,0.13c-2.6,0-2.21-3.12,0.52-4.16c0.91,0.26,4.94,0.26,9.75,0.13c7.67-14.69,11.18-19.89,11.96-22.49
		c2.47-1.82,7.41,1.04,6.76,3.9C390.23,54.91,385.55,62.32,381.13,70.51z"/>
	<path d="M422.6,74.67c4.29,0,8.97,2.08,8.71,9.49c-0.13,4.29-3.64,14.17-9.23,22.62h0.78c10.53-0.65,21.58-18.85,23.01-20.8
		c1.04-1.69,2.99-0.91,2.47,1.69c-1.3,2.08-7.15,14.69-17.16,20.54c-3.9,2.21-8.19,3.25-12.09,2.73c-3.51,4.42-7.67,8.06-12.09,9.75
		c-7.28,2.73-19.37-4.16-19.89-13c-0.91-14.56,11.05-36.53,24.7-38.61c3.77-0.52,9.75,1.56,11.05,4.55
		C423.12,74.28,422.99,74.54,422.6,74.67z M421.95,74.67c-1.43-0.13-4.16-1.04-6.89-0.39c-8.32,1.95-21.19,22.49-20.41,37.57
		c0.39,6.63,6.11,5.33,9.36,2.99c2.6-1.82,5.33-4.29,7.8-7.28c-0.78-0.78-1.69-1.82-2.34-2.86c-6.5-9.49-0.52-22.62,7.28-28.47
		C417.79,75.45,419.74,74.8,421.95,74.67z M414.41,104.31C420,96.9,424.55,87.8,425.2,80.39c0.39-4.03-5.2-2.86-9.36,2.6
		C410.51,89.88,409.34,99.76,414.41,104.31z"/>
	<path d="M469.01,74.15c4.03,1.04,7.8,2.73,3.51,8.19c-6.5,8.58-17.16,31.46-10.4,32.63c3.77,0.78,21.45-20.54,25.87-27.3
		c0.91-0.78,3.25-0.91,2.99,1.17c-2.86,6.5-15.47,22.62-23.27,28.6c-5.33,4.03-15.34,1.04-16.38-6.5
		c-1.69-9.75,8.71-26.13,11.44-31.07c1.69-2.73-2.21-2.99-5.98-3.64c-3.25,4.94-9.23,13.78-13.91,20.54
		c-1.56,1.43-4.16,0.13-3.51-1.56c2.47-3.9,10.14-14.95,12.87-20.02c-0.78-0.39-1.3-0.91-1.43-1.69c-1.43-4.16,4.55-15.73,7.54-16.9
		c1.95-0.78,5.85,2.34,5.46,4.81c-0.39,2.34-3.51,9.62-5.46,12.61C460.43,74.02,466.93,73.63,469.01,74.15z"/>
	<path d="M502.42,78.18c-0.78,2.86-3.12,5.46-7.41,13.78c-7.28,14.04-9.23,23.92-4.16,23.01c6.89-1.3,22.88-22.23,26.26-27.69
		c1.82-1.04,2.86,0.52,2.86,1.56c-2.73,7.54-16.38,24.83-22.62,28.6c-6.5,3.9-12.35,1.43-15.34-1.69
		c-2.99-3.25-3.25-10.27,2.6-22.36c5.07-10.53,9.62-15.6,10.01-19.11C496.18,72.2,503.2,74.67,502.42,78.18z M502.16,55.95
		c3.12-2.21,7.93-2.6,10.53-0.39c1.82,1.43,0.65,4.16-1.17,5.59c-1.95,1.56-5.59,2.34-8.84,1.95
		C499.56,62.71,498.91,58.29,502.16,55.95z"/>
	<path d="M548.96,84.81c1.56,1.69,2.73,3.9,1.69,5.2c-1.95,2.6-2.86,4.55-5.98,10.92c-3.38,7.54-3.64,14.69,1.04,14.04
		c6.11-0.78,22.49-22.1,25.61-27.3c1.04-1.04,2.86-0.26,2.99,1.17c-2.73,5.2-15.34,23.53-22.88,28.73
		c-6.37,4.42-12.09,1.04-15.73-2.6c-2.34-2.34-1.69-9.75,0.65-14.56c-3.64,5.46-13,16.38-18.72,19.24
		c-3.64,1.69-11.18-2.6-11.96-7.15c-1.04-5.98,4.29-19.24,13.52-29.51c9.62-10.66,17.16-13.78,23.14-15.08
		c6.76-1.43,17.03,5.46,15.34,9.88C556.11,81.17,551.04,84.55,548.96,84.81z M548.05,84.03c0.39-2.34,5.2-9.49,1.95-11.31
		c-3.64-1.95-16.77,5.85-23.53,15.21c-11.05,15.21-14.17,26-11.31,26.52c4.81,0.91,24.05-21.58,28.99-30.55
		C544.93,82.6,546.49,82.99,548.05,84.03z"/>
</g>
<g class="st1">
	<path d="M158.57,209.94c-8.97,20.67-15.99,40.82-16.9,44.46c-3.51,2.21-8.97,0.78-8.06-3.9c1.3-6.63,13.91-36.14,18.72-46.8
		c4.68-10.4,17.55-36.92,19.24-41.21c3.38-2.47,9.49,1.43,7.8,4.81C177.03,171.85,168.71,186.93,158.57,209.94z"/>
	<path d="M192.89,195.51c5.85,0,11.05,0.13,11.7,0.91c1.43,1.82,0.26,3.77-1.82,3.64c-1.04-0.52-6.11-0.65-11.83-0.65
		c-0.91,1.69-1.69,3.38-2.34,4.94c-7.02,15.99-16.25,38.48-7.15,35.49c4.81-1.56,21.71-22.75,25.48-27.95
		c1.17-0.91,3.25-0.26,2.6,1.95c-2.21,4.81-17.81,26.65-24.57,29.9c-4.68,2.21-14.56,0-15.6-7.15c-0.91-6.37,2.6-17.55,12.61-37.05
		c-4.16,0-7.41,0.13-8.32,0.13c-2.6,0-2.21-3.12,0.52-4.16c0.91,0.26,4.94,0.26,9.75,0.13c7.67-14.69,11.18-19.89,11.96-22.49
		c2.47-1.82,7.41,1.04,6.76,3.9C201.99,179.91,197.31,187.32,192.89,195.51z"/>
	<path d="M238.39,209.81c1.56,1.69,2.73,3.9,1.69,5.2c-1.95,2.6-2.86,4.55-5.98,10.92c-3.38,7.54-3.64,14.69,1.04,14.04
		c6.11-0.78,22.49-22.1,25.61-27.3c1.04-1.04,2.86-0.26,2.99,1.17c-2.73,5.2-15.34,23.53-22.88,28.73
		c-6.37,4.42-12.09,1.04-15.73-2.6c-2.34-2.34-1.69-9.75,0.65-14.56c-3.64,5.46-13,16.38-18.72,19.24
		c-3.64,1.69-11.18-2.6-11.96-7.15c-1.04-5.98,4.29-19.24,13.52-29.51c9.62-10.66,17.16-13.78,23.14-15.08
		c6.76-1.43,17.03,5.46,15.34,9.88C245.54,206.17,240.47,209.55,238.39,209.81z M237.48,209.03c0.39-2.34,5.2-9.49,1.95-11.31
		c-3.64-1.95-16.77,5.85-23.53,15.21c-11.05,15.21-14.17,26-11.31,26.52c4.81,0.91,24.05-21.58,28.99-30.55
		C234.36,207.6,235.92,207.99,237.48,209.03z"/>
	<path d="M272.97,204.61c-8.84,18.07-17.16,39.52-8.45,36.4c4.68-1.69,20.93-21.84,25.35-29.12c1.69-1.95,2.86,0.65,2.6,1.95
		c-2.21,6.24-18.33,28.08-24.7,31.33c-4.16,2.34-14.43,0-15.47-7.15c-0.78-6.37,2.6-17.68,14.17-39.52
		c7.67-14.43,15.47-26.91,15.34-30.16c1.3-3.25,8.58,0.26,7.8,2.99C288.44,175.1,282.72,184.59,272.97,204.61z"/>
	<path d="M304.04,203.18c-0.78,2.86-3.12,5.46-7.41,13.78c-7.28,14.04-9.23,23.92-4.16,23.01c6.89-1.3,22.88-22.23,26.26-27.69
		c1.82-1.04,2.86,0.52,2.86,1.56c-2.73,7.54-16.38,24.83-22.62,28.6c-6.5,3.9-12.35,1.43-15.34-1.69
		c-2.99-3.25-3.25-10.27,2.6-22.36c5.07-10.53,9.62-15.6,10.01-19.11C297.8,197.2,304.82,199.67,304.04,203.18z M303.78,180.95
		c3.12-2.21,7.93-2.6,10.53-0.39c1.82,1.43,0.65,4.16-1.17,5.59c-1.95,1.56-5.59,2.34-8.84,1.95
		C301.18,187.71,300.53,183.29,303.78,180.95z"/>
	<path d="M350.58,209.81c1.56,1.69,2.73,3.9,1.69,5.2c-1.95,2.6-2.86,4.55-5.98,10.92c-3.38,7.54-3.64,14.69,1.04,14.04
		c6.11-0.78,22.49-22.1,25.61-27.3c1.04-1.04,2.86-0.26,2.99,1.17c-2.73,5.2-15.34,23.53-22.88,28.73
		c-6.37,4.42-12.09,1.04-15.73-2.6c-2.34-2.34-1.69-9.75,0.65-14.56c-3.64,5.46-13,16.38-18.72,19.24
		c-3.64,1.69-11.18-2.6-11.96-7.15c-1.04-5.98,4.29-19.24,13.52-29.51c9.62-10.66,17.16-13.78,23.14-15.08
		c6.76-1.43,17.03,5.46,15.34,9.88C357.73,206.17,352.66,209.55,350.58,209.81z M349.67,209.03c0.39-2.34,5.2-9.49,1.95-11.31
		c-3.64-1.95-16.77,5.85-23.53,15.21c-11.05,15.21-14.17,26-11.31,26.52c4.81,0.91,24.05-21.58,28.99-30.55
		C346.55,207.6,348.11,207.99,349.67,209.03z"/>
	<path d="M371.77,230.61c0,0,22.49-30.81,32.89-34.06c5.33-1.69,12.35,2.34,10.01,8.32c-3.9,9.75-21.06,37.57-9.75,34.97
		c4.29-1.04,17.68-15.6,25.48-27.69c1.95-1.43,2.86,1.3,2.47,2.47c-5.98,11.05-15.73,22.88-22.75,27.82
		c-6.89,4.81-17.55-0.39-17.16-7.54c0.78-12.87,16.12-31.85,12.35-31.98c-6.5-0.39-33.8,35.23-35.23,39.13
		c-3.12,2.99-11.05,0-9.88-3.64s16.9-34.32,18.2-40.43c1.3-2.08,7.28,0.26,6.89,3.38C384.77,205.78,371.77,230.61,371.77,230.61z"/>
	<path d="M461.73,209.81c1.56,1.69,2.73,3.9,1.69,5.2c-1.95,2.6-2.86,4.55-5.98,10.92c-3.38,7.54-3.64,14.69,1.04,14.04
		c6.11-0.78,22.49-22.1,25.61-27.3c1.04-1.04,2.86-0.26,2.99,1.17c-2.73,5.2-15.34,23.53-22.88,28.73
		c-6.37,4.42-12.09,1.04-15.73-2.6c-2.34-2.34-1.69-9.75,0.65-14.56c-3.64,5.46-13,16.38-18.72,19.24
		c-3.64,1.69-11.18-2.6-11.96-7.15c-1.04-5.98,4.29-19.24,13.52-29.51c9.62-10.66,17.16-13.78,23.14-15.08
		c6.76-1.43,17.03,5.46,15.34,9.88C468.88,206.17,463.81,209.55,461.73,209.81z M460.82,209.03c0.39-2.34,5.2-9.49,1.95-11.31
		c-3.64-1.95-16.77,5.85-23.53,15.21c-11.05,15.21-14.17,26-11.31,26.52c4.81,0.91,24.05-21.58,28.99-30.55
		C457.7,207.6,459.26,207.99,460.82,209.03z"/>
</g>
</svg>
